<svg id="Layer_1" data-name="Layer 1" xmlns="http://www.w3.org/2000/svg" viewBox="0 0 813.17 172.5">
  <defs>
    <style>
      .cls-1 {
        fill: #44403f;
      }

      .cls-2 {
        fill: #304697;
      }
    </style>
  </defs>
  <g>
    <path class="cls-1" d="M309.84,88.93a44.92,44.92,0,0,0-15.58-7,75.58,75.58,0,0,0-17.58-2.08h-31v85h32a61.82,61.82,0,0,0,17.16-2.44,45.78,45.78,0,0,0,15.28-7.67A39.09,39.09,0,0,0,321,141.43c2.76-5.39,4.15-11.88,4.15-19.27,0-7.94-1.41-14.72-4.21-20.15A35.88,35.88,0,0,0,309.84,88.93Zm-7.55,33.23a25.49,25.49,0,0,1-2.19,11.17,19.07,19.07,0,0,1-5.79,7.13,23.51,23.51,0,0,1-8.44,3.88,42.19,42.19,0,0,1-10.13,1.2h-8.5V99h9a41.89,41.89,0,0,1,9.79,1.14,23.56,23.56,0,0,1,8.32,3.77,18.69,18.69,0,0,1,5.78,7A25.39,25.39,0,0,1,302.29,122.16Z" transform="translate(-36.46 -36.69)"/>
    <path class="cls-1" d="M392.59,105.93A35.31,35.31,0,0,0,381,99.05a43.08,43.08,0,0,0-28.24,0,34.32,34.32,0,0,0-11.63,6.88,32.66,32.66,0,0,0-7.87,11,35.12,35.12,0,0,0-2.91,14.54,35.55,35.55,0,0,0,2.91,14.61,33.1,33.1,0,0,0,7.87,11.11,35.44,35.44,0,0,0,11.63,7.08,41,41,0,0,0,28.24,0,36.5,36.5,0,0,0,11.63-7.08,32.72,32.72,0,0,0,7.94-11.11,35.72,35.72,0,0,0,2.91-14.61,35.28,35.28,0,0,0-2.91-14.54A32.29,32.29,0,0,0,392.59,105.93Zm-11,31.74a16.94,16.94,0,0,1-3,5.48,14.66,14.66,0,0,1-4.9,3.91,16.39,16.39,0,0,1-13.48,0,14.56,14.56,0,0,1-4.9-3.91,16.94,16.94,0,0,1-3-5.48,20,20,0,0,1,0-12.43,16.16,16.16,0,0,1,2.91-5.36,14.64,14.64,0,0,1,4.82-3.77,16.41,16.41,0,0,1,13.49,0,15.46,15.46,0,0,1,4.89,3.77,16.47,16.47,0,0,1,3.05,5.36,18.93,18.93,0,0,1,1.05,6.21A20,20,0,0,1,381.55,137.67Z" transform="translate(-36.46 -36.69)"/>
    <path class="cls-1" d="M435.17,119.88a15.17,15.17,0,0,1,4.76-3.7,13.64,13.64,0,0,1,6.22-1.39,15.44,15.44,0,0,1,6.48,1.46,13.19,13.19,0,0,1,5,3.83l12.56-14.55a25.13,25.13,0,0,0-4.69-3.63,31,31,0,0,0-5.95-2.78,47.05,47.05,0,0,0-6.75-1.78,38.05,38.05,0,0,0-7.07-.67,42.09,42.09,0,0,0-14.43,2.45,34.61,34.61,0,0,0-11.75,7,32.43,32.43,0,0,0-7.85,11,38.75,38.75,0,0,0,0,29.22,32.47,32.47,0,0,0,7.85,11.05,33.83,33.83,0,0,0,11.75,6.94,43.43,43.43,0,0,0,14.56,2.38,41.61,41.61,0,0,0,13.75-2.25,28.33,28.33,0,0,0,10.58-6.21l-12-14.68a12.5,12.5,0,0,1-5.22,3.63,18,18,0,0,1-6.55,1.26,15,15,0,0,1-6.41-1.32,14.71,14.71,0,0,1-4.9-3.64,15.76,15.76,0,0,1-3.1-5.35,19.49,19.49,0,0,1-1.06-6.48,18.55,18.55,0,0,1,1.12-6.48A17.57,17.57,0,0,1,435.17,119.88Z" transform="translate(-36.46 -36.69)"/>
    <path class="cls-1" d="M520.42,134.36a16.83,16.83,0,0,1-3,9.92,10,10,0,0,1-8.67,4.23,9.34,9.34,0,0,1-4.89-1.12,8.38,8.38,0,0,1-3-3.11,13.08,13.08,0,0,1-1.52-4.5,33.21,33.21,0,0,1-.4-5.29V98.79H477.18v40.73a38.84,38.84,0,0,0,1.26,9.85,24.11,24.11,0,0,0,4.1,8.6,21.52,21.52,0,0,0,7.4,6.14,23.89,23.89,0,0,0,11.17,2.38,23,23,0,0,0,6.55-.92,27.76,27.76,0,0,0,5.69-2.38,19.65,19.65,0,0,0,4.49-3.44,18.41,18.41,0,0,0,3.11-4.23h.26v9.12h20.9V98.79H520.42Z" transform="translate(-36.46 -36.69)"/>
    <polygon class="cls-1" points="610.66 43.2 597.87 96.07 583.81 43.94 583.61 43.2 561.21 43.2 547.08 96.03 534.52 43.2 510.83 43.2 534.96 128.2 556.4 128.2 572.24 74.01 588.08 128.2 609.39 128.2 633.64 43.2 610.66 43.2"/>
    <path class="cls-1" d="M721,105.07a21,21,0,0,0-9.32-6.35,42.38,42.38,0,0,0-14.08-2,46.43,46.43,0,0,0-15.8,2.78,38,38,0,0,0-13.56,8.33l11,11.77a28.25,28.25,0,0,1,7.34-4.76,21.08,21.08,0,0,1,8.92-2,14.87,14.87,0,0,1,8.47,2.31c2.29,1.54,3.43,3.95,3.43,7.21v1.06a139.7,139.7,0,0,0-14.67.79,53.56,53.56,0,0,0-13.69,3.17,25.62,25.62,0,0,0-10,6.75q-3.9,4.36-3.9,11.5a19.61,19.61,0,0,0,2.25,9.79,18.45,18.45,0,0,0,5.75,6.34,23.76,23.76,0,0,0,7.73,3.44,33.57,33.57,0,0,0,8.2,1.06,27,27,0,0,0,11-2.25,16.3,16.3,0,0,0,7.61-6.35h.39v7h19.84V131.45a64.27,64.27,0,0,0-1.65-15.54A27.23,27.23,0,0,0,721,105.07Zm-13,33.13q0,6.21-3.5,9.85t-10.11,3.63a17.51,17.51,0,0,1-3.31-.33,9.17,9.17,0,0,1-3-1.12,6.5,6.5,0,0,1-2.18-2.12,5.61,5.61,0,0,1-.86-3.17,6.19,6.19,0,0,1,1.85-4.69,11.82,11.82,0,0,1,4.69-2.71,29.55,29.55,0,0,1,6.48-1.26c2.42-.22,4.83-.33,7.21-.33h2.77Z" transform="translate(-36.46 -36.69)"/>
    <path class="cls-1" d="M774.92,96.94a18.37,18.37,0,0,0-10.71,3.2,21.4,21.4,0,0,0-7.14,8.25h-.27V98.87H735.91v65.77H757.6V130.88a16.25,16.25,0,0,1,.79-4.61,14.44,14.44,0,0,1,2.58-4.88,15,15,0,0,1,4.76-3.83,15.53,15.53,0,0,1,7.34-1.58c.88,0,1.78,0,2.71.13a17.64,17.64,0,0,1,2.84.53l.93-19.17a9.77,9.77,0,0,0-2-.4A24.22,24.22,0,0,0,774.92,96.94Z" transform="translate(-36.46 -36.69)"/>
    <path class="cls-1" d="M847.18,117.44a32.58,32.58,0,0,0-6.81-11.24,29,29,0,0,0-10.44-7.08,35.53,35.53,0,0,0-13.36-2.45,38.28,38.28,0,0,0-14,2.52,33.49,33.49,0,0,0-11.24,7.07,33,33,0,0,0-7.54,11.11A37.09,37.09,0,0,0,781,132a36.43,36.43,0,0,0,2.85,14.81,31.07,31.07,0,0,0,7.8,10.91,33.8,33.8,0,0,0,11.57,6.74,41.9,41.9,0,0,0,14,2.32,40.43,40.43,0,0,0,17.66-3.64,30.45,30.45,0,0,0,12.23-10.38L832,143.22a17.25,17.25,0,0,1-5.81,5,18.23,18.23,0,0,1-8.73,1.92,17.16,17.16,0,0,1-5.62-.93,16.81,16.81,0,0,1-4.89-2.58,14.07,14.07,0,0,1-3.57-3.9,11.49,11.49,0,0,1-1.66-5H849.5a22.46,22.46,0,0,0,.13-2.52v-2.64A43,43,0,0,0,847.18,117.44Zm-45.42,6.74a11.81,11.81,0,0,1,1.33-4.83,13.45,13.45,0,0,1,3.17-4,14.87,14.87,0,0,1,4.63-2.71,16.44,16.44,0,0,1,5.81-1q6.48,0,9.72,3.7a13,13,0,0,1,3.24,8.86Z" transform="translate(-36.46 -36.69)"/>
  </g>
  <g>
    <path class="cls-2" d="M149.94,123a32.84,32.84,0,0,1-32.86,32.86H117V134H95.09V112H117V90.1h.06A32.89,32.89,0,0,1,149.94,123" transform="translate(-36.46 -36.69)"/>
    <path class="cls-2" d="M183.71,62A86.27,86.27,0,1,0,209,123a86,86,0,0,0-25.26-61M156.25,162.11a55,55,0,0,1-39.16,16.23H117V155.83H95.09V134H73.16V112H95.09V90.1H117V67.57h.07a55.38,55.38,0,0,1,39.16,94.54" transform="translate(-36.46 -36.69)"/>
  </g>
</svg>
